<svg viewBox="0 0 48 48" fill="none" xmlns="http://www.w3.org/2000/svg"><path d="M40.364 17.776c0-8.613-7.327-15.594-16.364-15.594S7.636 9.163 7.636 17.776v.94c0 3.445 1.13 6.805 3.232 9.609l13.1 17.477a.04.04 0 0 0 .064 0l13.1-17.477c2.102-2.804 3.232-6.164 3.232-9.61v-.94Z" fill="#0266C1"/><path d="M21.092 12.576a7.045 7.045 0 0 1 5.816 0c1.837.838 3.171 2.421 3.625 4.303.454 1.88-.022 3.855-1.294 5.364-1.271 1.509-3.2 2.388-5.24 2.388-2.038 0-3.967-.879-5.238-2.388-1.272-1.508-1.748-3.483-1.294-5.364.453-1.882 1.788-3.465 3.625-4.303Z" fill="#fff"/></svg>