<svg viewBox="0 0 26 26" fill="none" xmlns="http://www.w3.org/2000/svg"><g stroke="#2D383F" stroke-linecap="round" stroke-linejoin="round"><path d="M21.863 9.628c0-4.665-3.968-8.446-8.863-8.446S4.136 4.963 4.136 9.628v.51c0 1.866.612 3.686 1.75 5.205l7.096 9.466a.022.022 0 0 0 .035 0l7.096-9.466a8.672 8.672 0 0 0 1.75-5.206v-.509Z"/><path d="M11.267 6.25a4.17 4.17 0 0 1 3.465 0c1.095.503 1.89 1.453 2.16 2.582a3.67 3.67 0 0 1-.77 3.22c-.758.905-1.907 1.432-3.122 1.432-1.215 0-2.364-.527-3.122-1.433a3.67 3.67 0 0 1-.771-3.219c.27-1.129 1.066-2.08 2.16-2.582Z"/></g></svg>