<svg xmlns="http://www.w3.org/2000/svg"><style>:root svg:not(:target){display:none}</style><svg fill="currentColor" id="odnoklassniki" viewBox="0 0 9 16"><path d="M4.5 2.42c.916 0 1.66.767 1.66 1.71 0 .94-.744 1.708-1.66 1.708-.916 0-1.66-.767-1.66-1.708 0-.943.744-1.71 1.66-1.71Zm0 5.838c2.212 0 4.011-1.852 4.011-4.127C8.511 1.851 6.712 0 4.5 0S.492 1.852.492 4.13c0 2.276 1.796 4.128 4.008 4.128Zm1.622 3.37a7.441 7.441 0 0 0 2.328-.995 1.231 1.231 0 0 0 .37-1.667 1.154 1.154 0 0 0-1.622-.381 4.97 4.97 0 0 1-5.399 0 1.15 1.15 0 0 0-1.619.38 1.231 1.231 0 0 0 .37 1.668 7.441 7.441 0 0 0 2.328.994L.635 13.934a1.236 1.236 0 0 0 0 1.71c.232.236.53.355.83.355.301 0 .602-.119.834-.355L4.5 13.377l2.204 2.267c.458.475 1.2.475 1.66 0a1.236 1.236 0 0 0 0-1.71l-2.242-2.307Z"></path></svg><svg fill="currentColor" id="Reddit" viewBox="0 0 14 15"><path d="M8.362 0c-.45 0-.87.244-1.14.596-.27.352-.42.78-.528 1.233-.173.727-.226 1.533-.239 2.26a7.031 7.031 0 0 0-3.353 1.11c-.385-.347-.849-.54-1.294-.535-.506.006-.987.24-1.344.72C-.22 6.3-.14 7.8.65 8.692a4.816 4.816 0 0 0-.085.842C.566 12.554 3.446 15 7 15c3.553 0 6.434-2.448 6.434-5.466a4.82 4.82 0 0 0-.085-.842c.791-.891.87-2.391.187-3.308-.357-.48-.838-.714-1.345-.72-.444-.005-.908.188-1.293.535a7.029 7.029 0 0 0-3.336-1.11c.017-.67.061-1.366.187-1.89.079-.33.172-.568.272-.699.1-.131.173-.185.34-.185.365 0 .411.126.63.432.111.154.239.346.443.534.204.187.506.35.834.35V1.314c-.091 0-.108-.002-.17-.062-.062-.059-.147-.195-.272-.37C9.574.533 9.087 0 8.362 0Zm3.54.123c-.847 0-1.532.827-1.532 1.85 0 1.022.685 1.849 1.532 1.849s1.532-.827 1.532-1.85c0-1.022-.685-1.849-1.532-1.849Zm0 .658c.545 0 .987.534.987 1.192 0 .657-.442 1.191-.987 1.191-.544 0-.987-.534-.987-1.191 0-.658.443-1.192.987-1.192ZM7 5.116c3.015 0 5.566 2.027 5.566 4.418 0 2.394-2.551 4.418-5.566 4.418-3.015 0-5.566-2.024-5.566-4.418 0-2.391 2.551-4.418 5.566-4.418Zm-5.174.596c.15.003.308.044.46.124-.548.5-.982 1.076-1.278 1.726-.204-.509-.148-1.143.103-1.48a.863.863 0 0 1 .715-.37Zm10.348 0a.863.863 0 0 1 .715.37c.252.337.307.971.103 1.48a5.343 5.343 0 0 0-1.277-1.726c.151-.08.308-.121.46-.124ZM4.822 7.356c-.544 0-.987.534-.987 1.192 0 .657.443 1.192.987 1.192.545 0 .988-.535.988-1.192 0-.658-.443-1.192-.988-1.192Zm4.358 0c-.545 0-.988.534-.988 1.192 0 .657.443 1.192.988 1.192.544 0 .987-.535.987-1.192 0-.658-.443-1.192-.987-1.192Zm-4.885 4.048C4.64 12.27 5.713 13.11 7 13.11s2.377-.84 2.723-1.706c-.63.49-1.623.822-2.723.822-1.1 0-2.077-.331-2.706-.822Z"></path></svg><svg fill="currentColor" id="vk" viewBox="0 0 16 9"><path d="M15.857 8.027c-.043-.07-.309-.64-1.589-1.812-1.34-1.226-1.16-1.027.454-3.148.983-1.291 1.376-2.08 1.253-2.417-.117-.322-.84-.237-.84-.237l-2.404.014s-.178-.024-.31.054c-.13.077-.213.255-.213.255s-.38 1-.889 1.85c-1.071 1.793-1.5 1.887-1.675 1.776-.407-.26-.305-1.043-.305-1.6 0-1.738.267-2.462-.521-2.65C8.556.05 8.364.01 7.695.002 6.837-.007 6.11.005 5.699.203c-.274.132-.485.427-.356.444.159.02.519.095.71.352.247.33.238 1.073.238 1.073s.142 2.046-.331 2.3c-.325.175-.77-.18-1.725-1.809-.49-.833-.86-1.754-.86-1.754s-.07-.172-.198-.264c-.154-.111-.37-.147-.37-.147L.521.412S.178.422.052.57C-.06.7.043.97.043.97s1.79 4.128 3.817 6.21c1.859 1.907 3.969 1.782 3.969 1.782h.956s.289-.031.436-.188c.136-.144.13-.414.13-.414s-.018-1.265.578-1.452c.587-.183 1.341 1.223 2.14 1.764.604.41 1.063.32 1.063.32l2.137-.03s1.118-.068.588-.935Z"></path></svg></svg>