<svg preserveAspectRatio="none" width="23" height="23" fill="none" xmlns="http://www.w3.org/2000/svg"><g clip-path="url(#a)"><path d="m22.883 16.637-4.62-5.165h2.232c.26 0 .472-.208.471-.462 0-.102-.035-.2-.098-.28L17.16 5.966h1.887c.26 0 .471-.207.471-.461a.455.455 0 0 0-.117-.304L14.86.156a.48.48 0 0 0-.707 0l-4.543 5.04c-.175.19-.16.48.034.651.087.078.202.12.32.12h1.91l-1.141 1.456-3.058-3.398a.48.48 0 0 0-.707 0L3.086 8.336a.454.454 0 0 0 .043.651.478.478 0 0 0 .31.115h1.496l-3.104 3.97a.454.454 0 0 0 .102.645.48.48 0 0 0 .27.088H3.95L.113 18.117a.454.454 0 0 0 .052.65c.084.07.191.11.302.11h5.218v3.228c0 .494.41.895.916.895H8.04a.905.905 0 0 0 .92-.89V18.878h3.916v3.227c0 .494.41.895.915.895h1.439c.505 0 .915-.4.915-.895v-4.703h6.384c.26 0 .471-.207.471-.462a.456.456 0 0 0-.117-.303Zm-14.867 5.44-1.387.028-.028-3.227h1.415v3.2Zm4.86-4.122H1.506l3.858-4.302a.454.454 0 0 0-.033-.651.479.479 0 0 0-.33-.119h-1.84l3.105-3.97a.454.454 0 0 0-.086-.647.479.479 0 0 0-.287-.096H4.478l2.83-3.15 2.831 3.141-1.99 2.573a.454.454 0 0 0 .085.647.479.479 0 0 0 .287.096h2.236L6.138 16.64a.454.454 0 0 0 .043.65.478.478 0 0 0 .311.116h6.384v.548Zm2.326 4.114-1.383.036-.028-4.703h1.415l-.004 4.666Zm.028-5.59h-7.7l4.62-5.164a.454.454 0 0 0-.044-.65.478.478 0 0 0-.31-.115H9.478l3.727-4.768a.454.454 0 0 0-.094-.646.48.48 0 0 0-.279-.092h-1.807l3.501-3.883 3.482 3.883h-1.821a.467.467 0 0 0-.471.462c0 .102.035.2.098.28l3.704 4.764H17.22a.466.466 0 0 0-.471.461c0 .112.042.22.117.304l4.62 5.165H15.23Z" fill="#2D383F"/></g><defs><clipPath id="a"><path fill="#fff" d="M0 0h23v23H0z"/></clipPath></defs></svg>